<svg width="24" height="24" viewBox="0 0 24 24" fill="none" xmlns="http://www.w3.org/2000/svg">
<g clip-path="url(#clip0_157_2986)">
<path d="M24 12C24 12.4543 23.9743 12.9121 23.9236 13.3606C23.8355 14.1402 22.883 14.4721 22.3291 13.9183L19.748 11.3371C19.3818 10.971 19.3818 10.3774 19.748 10.0113C20.114 9.64514 20.7077 9.64514 21.0738 10.0113L22.0781 11.0156C21.5953 5.97797 17.3508 1.875 12 1.875C6.37238 1.875 1.875 6.44109 1.875 12C1.875 17.5965 6.4042 22.125 12 22.125C15.7102 22.125 19.1191 20.0991 20.8967 16.8378C21.1444 16.3831 21.7138 16.2155 22.1685 16.4632C22.6231 16.711 22.7908 17.2805 22.543 17.7351C20.4368 21.5994 16.397 24 12 24C5.36705 24 0 18.6321 0 12C0 5.37389 5.37356 0 12 0C18.6329 0 24 5.36798 24 12ZM12 3.75C11.4822 3.75 11.0625 4.16972 11.0625 4.6875V12C11.0625 12.2486 11.1613 12.4871 11.3371 12.6629L15.2151 16.5409C15.5812 16.907 16.1748 16.9071 16.541 16.5409C16.9071 16.1748 16.9071 15.5812 16.541 15.2151L12.9375 11.6117V4.6875C12.9375 4.16972 12.5178 3.75 12 3.75Z" fill="#121720"/>
</g>
<defs>
<clipPath id="clip0_157_2986">
<rect width="24" height="24" fill="white"/>
</clipPath>
</defs>
</svg>
