<svg width="24" height="24" viewBox="0 0 24 24" fill="none" xmlns="http://www.w3.org/2000/svg">
<g clip-path="url(#clip0_39_564)">
<path d="M19.7064 0H4.29356C1.92609 0 0 1.92609 0 4.29356V19.7065C0 22.0739 1.92609 24 4.29356 24H19.7065C22.0739 24 24 22.0739 24 19.7064V4.29356C24 1.92609 22.0739 0 19.7064 0ZM22.5938 19.7064C22.5938 21.2985 21.2985 22.5938 19.7064 22.5938H4.29356C2.7015 22.5938 1.40625 21.2985 1.40625 19.7064V4.29356C1.40625 2.7015 2.7015 1.40625 4.29356 1.40625H19.7065C21.2985 1.40625 22.5938 2.7015 22.5938 4.29356V19.7064Z" fill="#121720"/>
<path d="M20.2844 5.27192H9.57531C9.28089 4.39747 8.45378 3.76569 7.48131 3.76569C6.50884 3.76569 5.68173 4.39747 5.38731 5.27192H3.7157C3.32739 5.27192 3.01257 5.58673 3.01257 5.97505C3.01257 6.36336 3.32739 6.67817 3.7157 6.67817H5.38735C5.68178 7.55262 6.50889 8.18441 7.48135 8.18441C8.45382 8.18441 9.28093 7.55262 9.57535 6.67817H20.2845C20.6728 6.67817 20.9876 6.36336 20.9876 5.97505C20.9876 5.58673 20.6728 5.27192 20.2844 5.27192ZM7.48131 6.77816C7.03848 6.77816 6.6782 6.41787 6.6782 5.97505C6.6782 5.53222 7.03848 5.17194 7.48131 5.17194C7.92414 5.17194 8.28442 5.53222 8.28442 5.97505C8.28442 6.41787 7.92414 6.77816 7.48131 6.77816Z" fill="#121720"/>
<path d="M20.2844 11.2969H18.6128C18.3183 10.4225 17.4912 9.79071 16.5188 9.79071C15.5463 9.79071 14.7192 10.4225 14.4248 11.2969H3.7157C3.32739 11.2969 3.01257 11.6118 3.01257 12.0001C3.01257 12.3884 3.32739 12.7032 3.7157 12.7032H14.4248C14.7192 13.5776 15.5464 14.2094 16.5188 14.2094C17.4912 14.2094 18.3184 13.5776 18.6128 12.7032H20.2845C20.6728 12.7032 20.9876 12.3884 20.9876 12.0001C20.9876 11.6118 20.6728 11.2969 20.2844 11.2969ZM16.5188 12.8032C16.076 12.8032 15.7157 12.4429 15.7157 12.0001C15.7157 11.5572 16.076 11.197 16.5188 11.197C16.9616 11.197 17.3219 11.5572 17.3219 12.0001C17.3219 12.4429 16.9616 12.8032 16.5188 12.8032Z" fill="#121720"/>
<path d="M20.2844 17.3219H12.5878C12.2934 16.4475 11.4663 15.8157 10.4938 15.8157C9.52135 15.8157 8.69425 16.4475 8.39982 17.3219H3.7157C3.32739 17.3219 3.01257 17.6368 3.01257 18.0251C3.01257 18.4134 3.32739 18.7282 3.7157 18.7282H8.39982C8.69425 19.6026 9.52135 20.2344 10.4938 20.2344C11.4663 20.2344 12.2934 19.6026 12.5878 18.7282H20.2845C20.6728 18.7282 20.9876 18.4134 20.9876 18.0251C20.9876 17.6368 20.6728 17.3219 20.2844 17.3219ZM10.4938 18.8282C10.051 18.8282 9.69071 18.4679 9.69071 18.0251C9.69071 17.5823 10.051 17.222 10.4938 17.222C10.9367 17.222 11.2969 17.5822 11.2969 18.0251C11.2969 18.4679 10.9367 18.8282 10.4938 18.8282Z" fill="#121720"/>
</g>
<defs>
<clipPath id="clip0_39_564">
<rect width="24" height="24" fill="white"/>
</clipPath>
</defs>
</svg>
