<svg width="24" height="24" viewBox="0 0 24 24" fill="none" xmlns="http://www.w3.org/2000/svg">
<path d="M21.2448 10.2613L13.087 10.2609C12.7268 10.2609 12.4348 10.5528 12.4348 10.9131V13.5191C12.4348 13.8793 12.7268 14.1713 13.087 14.1713H17.681C17.1779 15.4768 16.239 16.5701 15.0411 17.2648L17 20.6558C20.1423 18.8385 22 15.6499 22 12.0804C22 11.5722 21.9625 11.2089 21.8876 10.7998C21.8306 10.4889 21.5608 10.2613 21.2448 10.2613Z" fill="#121720"/>
<path d="M11.9999 18.087C9.75172 18.087 7.78907 16.8586 6.73497 15.0409L3.34412 16.9954C5.0697 19.9861 8.30227 22 11.9999 22C13.8139 22 15.5255 21.5116 16.9999 20.6605V20.6558L15.041 17.2648C14.145 17.7845 13.1082 18.087 11.9999 18.087Z" fill="#121720"/>
<path d="M17 20.6604V20.6557L15.0411 17.2647C14.1451 17.7844 13.1083 18.0869 12 18.0869V21.9999C13.8139 21.9999 15.5256 21.5115 17 20.6604Z" fill="#121720"/>
<path d="M5.91304 11.9999C5.91304 10.8918 6.21546 9.85503 6.73503 8.95905L3.34418 7.00461C2.48836 8.47441 2 10.1814 2 11.9999C2 13.8185 2.48836 15.5255 3.34418 16.9953L6.73503 15.0408C6.21546 14.1449 5.91304 13.1081 5.91304 11.9999Z" fill="#121720"/>
<path d="M11.9999 5.91304C13.466 5.91304 14.8126 6.43397 15.8644 7.30049C16.1239 7.51424 16.5011 7.49881 16.7388 7.26112L18.5852 5.41464C18.8549 5.14495 18.8357 4.70351 18.5476 4.45359C16.7853 2.92472 14.4924 2 11.9999 2C8.30227 2 5.0697 4.01394 3.34412 7.00464L6.73497 8.95908C7.78907 7.14139 9.75172 5.91304 11.9999 5.91304Z" fill="#121720"/>
<path d="M15.8645 7.30049C16.124 7.51424 16.5012 7.49881 16.7389 7.26112L18.5853 5.41464C18.855 5.14495 18.8358 4.70351 18.5477 4.45359C16.7854 2.92469 14.4925 2 12 2V5.91304C13.466 5.91304 14.8127 6.43397 15.8645 7.30049Z" fill="#121720"/>
</svg>
