<svg width="24" height="24" viewBox="0 0 24 24" fill="none" xmlns="http://www.w3.org/2000/svg">
<g clip-path="url(#clip0_157_2987)">
<path d="M22.7144 8.50447C22.3977 7.52384 22.5327 6.05183 21.7096 4.91525C20.88 3.76972 19.4371 3.44413 18.6224 2.84825C17.8162 2.25866 17.0662 0.975641 15.7102 0.533141C14.3924 0.10311 13.0448 0.686657 12 0.686657C10.9553 0.686657 9.60783 0.10297 8.2898 0.533094C6.93398 0.975501 6.18337 2.2588 5.37773 2.84811C4.56389 3.44328 3.11995 3.76977 2.2905 4.91511C1.46808 6.05075 1.60172 7.52614 1.28559 8.50442C0.98475 9.4355 0 10.553 0 12.0001C0 13.4481 0.983625 14.5612 1.28559 15.4957C1.60228 16.4763 1.46728 17.9483 2.29041 19.0849C3.11995 20.2305 4.56277 20.556 5.37759 21.152C6.18361 21.7415 6.93375 23.0246 8.2898 23.467C9.6067 23.8968 10.9564 23.3135 12 23.3135C13.0422 23.3135 14.395 23.8962 15.7102 23.4671C17.0661 23.0247 17.8162 21.7416 18.6223 21.152C19.4361 20.5569 20.88 20.2304 21.7095 19.085C22.532 17.9494 22.3982 16.4741 22.7144 15.4957C23.0153 14.5646 24 13.4472 24 12.0001C24 10.5522 23.0166 9.43934 22.7144 8.50447ZM20.9303 14.9192C20.5612 16.0617 20.6579 17.3405 20.191 17.9852C19.7178 18.6385 18.4748 18.9369 17.5155 19.6385C16.5668 20.3323 15.9019 21.4321 15.1286 21.6845C14.397 21.9232 13.2046 21.4384 12 21.4384C10.7866 21.4384 9.60661 21.9243 8.87147 21.6845C8.09822 21.4321 7.43423 20.333 6.4845 19.6385C5.53097 18.9411 4.28081 18.6365 3.80902 17.9851C3.34364 17.3425 3.43669 16.055 3.0698 14.9192C2.71017 13.8065 1.875 12.8429 1.875 12.0001C1.875 11.1564 2.70942 10.1962 3.0697 9.08098C3.43884 7.93845 3.34214 6.65966 3.80902 6.01499C4.28189 5.36211 5.52591 5.06272 6.4845 4.36166C7.4362 3.66561 8.09695 2.56841 8.87138 2.3157C9.60239 2.0772 10.7986 2.56175 12 2.56175C13.2156 2.56175 14.3926 2.07556 15.1285 2.3157C15.9017 2.56799 16.5662 3.66748 17.5155 4.3617C18.4689 5.05906 19.7192 5.36361 20.191 6.01503C20.6565 6.65773 20.5629 7.94398 20.9302 9.08089V9.08094C21.2898 10.1937 22.125 11.1572 22.125 12.0001C22.125 12.8438 21.2906 13.804 20.9303 14.9192ZM16.3192 8.99094C16.6853 9.35708 16.6853 9.95066 16.3192 10.3168L11.6267 15.0092C11.2606 15.3754 10.667 15.3753 10.3009 15.0092L7.68084 12.3892C7.3147 12.023 7.31466 11.4295 7.6808 11.0634C8.04694 10.6973 8.64061 10.6972 9.00661 11.0634L10.9638 13.0205L14.9933 8.99098C15.3594 8.62484 15.9531 8.62484 16.3192 8.99094Z" fill="#121720"/>
</g>
<defs>
<clipPath id="clip0_157_2987">
<rect width="24" height="24" fill="white"/>
</clipPath>
</defs>
</svg>
