<svg width="24" height="24" viewBox="0 0 24 24" fill="none" xmlns="http://www.w3.org/2000/svg">
<g clip-path="url(#clip0_8_53)">
<path d="M23.6804 22.1377L16.2421 14.6994C17.4571 13.1535 18.1826 11.2056 18.1826 9.09134C18.1826 4.07833 14.1043 0 9.09127 0C4.07833 0 0 4.07833 0 9.09127C0 14.1042 4.07833 18.1825 9.09127 18.1825C11.2055 18.1825 13.1535 17.4571 14.6993 16.2421L22.1377 23.6804C22.3507 23.8935 22.6299 24 22.9091 24C23.1883 24 23.4675 23.8935 23.6804 23.6804C24.1065 23.2545 24.1065 22.5637 23.6804 22.1377ZM2.18182 9.09127C2.18182 5.28138 5.28138 2.18182 9.09127 2.18182C12.9012 2.18182 16.0008 5.28138 16.0008 9.09127C16.0008 12.9012 12.9012 16.0007 9.09127 16.0007C5.28138 16.0007 2.18182 12.9012 2.18182 9.09127Z" fill="#121720"/>
</g>
<defs>
<clipPath id="clip0_8_53">
<rect width="24" height="24" fill="white"/>
</clipPath>
</defs>
</svg>
