<svg width="24" height="24" viewBox="0 0 24 24" fill="none" xmlns="http://www.w3.org/2000/svg">
<path d="M21.9205 22.9975L20.4601 6.73362C20.4202 6.28947 20.048 5.94926 19.6021 5.94926H16.5904V4.59096C16.5904 2.05951 14.531 0 11.9997 0C9.46848 0 7.40931 2.05951 7.40931 4.59096V5.94926H4.39557C3.9497 5.94926 3.57745 6.28947 3.53759 6.73362L2.07144 23.0615C2.04984 23.3025 2.13047 23.5413 2.29369 23.7197C2.4569 23.8982 2.68765 23.9999 2.92942 23.9999H21.0684C21.0691 23.9999 21.07 23.9999 21.0707 23.9999C21.5465 23.9999 21.9321 23.6142 21.9321 23.1385C21.932 23.0906 21.9281 23.0434 21.9205 22.9975ZM9.13217 4.59096C9.13217 3.00949 10.4186 1.72286 11.9998 1.72286C13.5812 1.72286 14.8677 3.00949 14.8677 4.59096V5.94926H9.13217V4.59096ZM3.87171 22.2771L5.18315 7.67212H7.40931V9.21259C7.40931 9.68832 7.79489 10.074 8.27074 10.074C8.7466 10.074 9.13217 9.68832 9.13217 9.21259V7.67212H14.8677V9.21259C14.8677 9.68832 15.2533 10.074 15.7291 10.074C16.205 10.074 16.5905 9.68832 16.5905 9.21259V7.67212H18.8146L20.1261 22.2771H3.87171Z" fill="#121720"/>
</svg>
