<svg width="24" height="24" viewBox="0 0 24 24" fill="none" xmlns="http://www.w3.org/2000/svg">
<g clip-path="url(#clip0_159_3144)">
<path d="M23.8459 8.69162L20.4923 4.38751C19.6768 3.34095 18.4482 2.74078 17.1214 2.74078H14.9094C14.6028 2.74078 14.3288 2.93232 14.2236 3.22035C13.8838 4.14976 12.9903 4.77423 12.0001 4.77423C11.01 4.77423 10.1166 4.14976 9.77673 3.22035C9.67147 2.93232 9.39752 2.74078 9.09092 2.74078H6.87877C5.5521 2.74078 4.3234 3.34095 3.50791 4.38761L0.154378 8.69162C0.00863971 8.87867 -0.037262 9.12477 0.0313819 9.35177C0.100026 9.57878 0.274557 9.75832 0.499579 9.83322L5.14796 11.3819V20.529C5.14796 20.9323 5.47491 21.2593 5.87821 21.2593H18.1221C18.5254 21.2593 18.8523 20.9323 18.8523 20.529V11.3819L23.5007 9.83322C23.7257 9.75832 23.9003 9.57878 23.9689 9.35177C24.0375 9.12477 23.9916 8.87867 23.8459 8.69162ZM18.8523 9.8425V8.76903C18.8523 8.36572 18.5254 8.03878 18.1221 8.03878C17.7188 8.03878 17.3918 8.36572 17.3918 8.76903V19.7988H6.60836V8.76903C6.60836 8.36572 6.28142 8.03878 5.87811 8.03878C5.4748 8.03878 5.14786 8.36572 5.14786 8.76903V9.8425L1.94141 8.77425L4.65994 5.2853C5.19678 4.59636 6.00538 4.20129 6.87877 4.20129H8.61896C9.27567 5.43563 10.5761 6.23463 12 6.23463C13.4239 6.23463 14.7244 5.43552 15.3812 4.20129H17.1214C17.9947 4.20129 18.8034 4.59636 19.3402 5.2852L22.0589 8.77425L18.8523 9.8425Z" fill="#121720"/>
</g>
<defs>
<clipPath id="clip0_159_3144">
<rect width="24" height="24" fill="white"/>
</clipPath>
</defs>
</svg>
