<svg width="24" height="24" viewBox="0 0 24 24" fill="none" xmlns="http://www.w3.org/2000/svg">
<g clip-path="url(#clip0_157_2985)">
<path d="M23.0625 6.46875C23.5803 6.46875 24 6.04903 24 5.53125V3.75C24 1.68225 22.3177 0 20.25 0H3.75C1.68225 0 0 1.68225 0 3.75V20.25C0 22.3177 1.68225 24 3.75 24H20.25C21.8667 24 23.2965 22.9701 23.8079 21.4373C23.9717 20.9461 23.7064 20.4151 23.2152 20.2513C22.724 20.0873 22.1931 20.3528 22.0292 20.844C21.7736 21.6102 21.0586 22.125 20.25 22.125H3.75C2.71613 22.125 1.875 21.2839 1.875 20.25V9.21431C2.16834 9.31833 2.48395 9.375 2.8125 9.375H20.25C21.2839 9.375 22.125 10.2161 22.125 11.25V12.9844H18.9844C15.2523 13.1393 15.2552 18.4558 18.9844 18.6094H23.0625C23.5803 18.6094 24 18.1896 24 17.6719V11.25C24 9.18225 22.3177 7.5 20.25 7.5H2.8125C1.56848 7.44834 1.56947 5.67623 2.8125 5.625H19.3125C20.5564 5.5755 20.5554 3.79908 19.3125 3.75H2.8125C2.48395 3.75 2.16834 3.80663 1.875 3.91064V3.75C1.875 2.71613 2.71613 1.875 3.75 1.875H20.25C21.2839 1.875 22.125 2.71613 22.125 3.75V5.53125C22.125 6.04903 22.5447 6.46875 23.0625 6.46875ZM22.125 16.7344H18.9844C17.7404 16.6827 17.7413 14.9106 18.9844 14.8594H22.125V16.7344Z" fill="#121720"/>
</g>
<defs>
<clipPath id="clip0_157_2985">
<rect width="24" height="24" fill="white"/>
</clipPath>
</defs>
</svg>
